# 3ds Max Wavefront OBJ Exporter v0.97b - (c)2007 guruware
# File Created: 05.12.2018 16:03:15

mtllib spray.mtl

#
# object Box001
#

v  1.9808 2.0112 5.0000
v  1.9808 2.0112 -5.0000
v  11.3777 5.4314 -5.0000
v  11.3777 5.4314 5.0000
v  -4.5912 28.1329 2.2272
v  -0.3785 29.6662 2.2272
v  -0.3785 29.6662 -2.2272
v  -4.5912 28.1329 -2.2272
v  5.4073 21.8351 5.0000
v  -3.9896 18.4149 5.0000
v  5.4073 21.8351 -5.0000
v  -3.9896 18.4149 -5.0000
v  1.6252 24.1971 2.2538
v  -2.6106 22.6554 2.2538
v  1.6252 24.1971 -2.2538
v  -2.6106 22.6554 -2.2538
v  0.6855 23.8550 1.2538
v  -1.6709 22.9974 1.2538
v  0.6855 23.8550 -1.2538
v  -1.6709 22.9974 -1.2538
v  -0.2537 26.4356 1.2538
v  -2.6102 25.5779 1.2538
v  -0.2537 26.4356 -1.2538
v  -2.6102 25.5779 -1.2538
v  0.6420 26.7783 2.2271
v  -3.5166 25.2647 2.2271
v  0.6420 26.7783 -2.2271
v  -3.5166 25.2647 -2.2271
# 28 vertices

vn -0.3451 -0.7400 0.5774
vn -0.3451 -0.7400 -0.5774
vn 0.7400 -0.3451 -0.5774
vn 0.7400 -0.3451 0.5774
vn -0.7419 0.3417 0.5769
vn 0.3488 0.7386 0.5769
vn 0.3488 0.7386 -0.5769
vn -0.7419 0.3417 -0.5769
vn 0.5026 0.5556 0.6623
vn -0.7422 0.1025 0.6623
vn 0.5026 0.5556 -0.6623
vn -0.7422 0.1025 -0.6623
vn 0.0291 0.9371 0.3479
vn -0.6247 0.6991 0.3479
vn 0.0291 0.9371 -0.3479
vn -0.6247 0.6991 -0.3479
vn -0.0260 0.9531 0.3015
vn -0.5927 0.7469 0.3015
vn -0.0260 0.9531 -0.3015
vn -0.5927 0.7469 -0.3015
vn 0.5970 -0.7410 0.3074
vn 0.0190 -0.9514 0.3074
vn 0.5970 -0.7410 -0.3074
vn 0.0190 -0.9514 -0.3074
vn 0.7385 -0.3449 0.5794
vn -0.3441 -0.7389 0.5794
vn 0.7385 -0.3449 -0.5794
vn -0.3441 -0.7389 -0.5794
# 28 vertex normals

vt 0.6818 0.0320 0.0000
vt 0.8813 0.1279 0.0000
vt 0.7853 0.3274 0.0000
vt 0.5859 0.2314 0.0000
vt 0.3071 0.9401 0.0000
vt 0.3527 0.8519 0.0000
vt 0.4402 0.8972 0.0000
vt 0.3947 0.9854 0.0000
vt 0.3864 0.1355 0.0000
vt 0.4184 0.5796 0.0000
vt 0.2189 0.4836 0.0000
vt 0.6179 0.6755 0.0000
vt 0.9848 0.4233 0.0000
vt 0.8173 0.7715 0.0000
vt 0.1870 0.0395 0.0000
vt 0.0195 0.3877 0.0000
vt 0.3208 0.6422 0.0000
vt 0.2309 0.5989 0.0000
vt 0.5203 0.7381 0.0000
vt 0.4304 0.6949 0.0000
vt 0.7197 0.8341 0.0000
vt 0.6298 0.7908 0.0000
vt 0.1214 0.5462 0.0000
vt 0.0315 0.5030 0.0000
vt 0.2913 0.6525 0.0000
vt 0.2413 0.6285 0.0000
vt 0.4892 0.7477 0.0000
vt 0.4423 0.7252 0.0000
vt 0.6902 0.8444 0.0000
vt 0.6402 0.8203 0.0000
vt 0.0919 0.5566 0.0000
vt 0.0418 0.5325 0.0000
vt 0.4091 0.6892 0.0000
vt 0.4069 0.7749 0.0000
vt 0.3590 0.7250 0.0000
vt 0.4692 0.8062 0.0000
vt 0.5408 0.7571 0.0000
vt 0.5307 0.8138 0.0000
vt 0.3842 0.6425 0.0000
vt 0.3328 0.6695 0.0000
vt 0.3886 0.7943 0.0000
vt 0.3357 0.7380 0.0000
vt 0.4665 0.8346 0.0000
vt 0.5541 0.8326 0.0000
vt 0.3073 0.6536 0.0000
vt 0.2690 0.7986 0.0000
vt 0.3059 0.7418 0.0000
vt 0.5572 0.8717 0.0000
vt 0.5321 0.9347 0.0000
vt 0.1863 0.7450 0.0000
vt 0.2232 0.6881 0.0000
# 51 texture coords

o Box001
g Box001
usemtl 01___Default
s 2
f 1/1/1 2/2/2 3/3/3 4/4/4 
s 4
f 5/5/5 6/6/6 7/7/7 8/8/8 
s 8
f 1/9/1 4/4/4 9/10/9 10/11/10 
s 16
f 4/4/4 3/3/3 11/12/11 9/10/9 
s 32
f 3/3/3 2/13/2 12/14/12 11/12/11 
s 64
f 2/15/2 1/9/1 10/11/10 12/16/12 
s off
f 10/11/10 9/10/9 13/17/13 14/18/14 
f 9/10/9 11/12/11 15/19/15 13/20/13 
f 11/12/11 12/14/12 16/21/16 15/22/15 
f 12/16/12 10/11/10 14/23/14 16/24/16 
f 14/18/14 13/17/13 17/25/17 18/26/18 
f 13/20/13 15/19/15 19/27/19 17/28/17 
f 15/22/15 16/21/16 20/29/20 19/30/19 
f 16/24/16 14/23/14 18/31/18 20/32/20 
f 18/33/18 17/28/17 21/34/21 22/35/22 
f 17/28/17 19/27/19 23/36/23 21/34/21 
f 19/27/19 20/37/20 24/38/24 23/36/23 
f 20/39/20 18/33/18 22/35/22 24/40/24 
f 22/35/22 21/34/21 25/41/25 26/42/26 
f 21/34/21 23/36/23 27/43/27 25/41/25 
f 23/36/23 24/38/24 28/44/28 27/43/27 
f 24/40/24 22/35/22 26/42/26 28/45/28 
f 25/41/25 6/6/6 5/46/5 26/47/26 
f 27/43/27 7/7/7 6/6/6 25/41/25 
f 28/48/28 8/49/8 7/7/7 27/43/27 
f 26/47/26 5/46/5 8/50/8 28/51/28 
# 26 polygons

